<svg width="700" height="700" viewBox="0 0 700 700" xmlns="http://www.w3.org/2000/svg">
	<path id="Path" fill="#ffffff" stroke="none" d="M 12.179993 338.143768 C 13.020004 287.649261 10.600006 225.111267 13.399994 162.65332 C 14.839996 130.333984 22.600006 99.945251 42.570007 73.49762 C 68.919998 38.567627 103.949997 19.332092 147.200012 14.650757 C 156.054688 13.553467 164.959625 12.909058 173.880005 12.720154 C 292.730011 12.080017 411.590027 11.629883 530.429993 12.920227 C 571.429993 13.360352 609.039978 24.453552 639.77002 53.621948 C 672.349976 84.550842 685.940002 123.371948 686.570007 167.144592 C 688.349976 289.619873 688.640015 412.115051 686.450012 534.590332 C 685.450012 591.86676 662.179993 637.519897 611.669983 667.238403 C 586.669983 681.932678 558.960022 686.904114 530.559998 687.244202 C 415.900024 688.694641 301.230011 687.884399 186.559998 687.714355 C 171.219421 687.783447 155.893585 686.753845 140.700012 684.633423 C 72.539993 674.710632 23.360001 624.176086 15.160004 555.926453 C 13.046509 537.072937 12.044785 518.111389 12.160004 499.140076 C 12.113332 474.299622 12.113332 449.46582 12.160004 424.638672 Z"/>
	<path id="path1" fill="#000000" stroke="none" d="M 371.450012 603 C 312.660004 603 272.910004 595.909973 236.570007 575.150024 C 190.350006 548.75 161.5 508.289978 146.480011 458.200012 C 123.660004 382.080017 123.480011 305.540039 150.339996 230.450012 C 178.859985 150.589966 237.700012 107.570007 321.339996 98.179993 C 369.900024 92.72998 417.340027 97.719971 461.690002 119.609985 C 517.200012 147 549.48999 193.410034 566.849976 251.530029 C 568.090027 255.700012 566.630005 256.900024 563 257.820007 C 551.909973 260.619995 540.849976 263.51001 529.869995 266.700012 C 525.460022 267.97998 524.869995 265.700012 523.869995 262.380005 C 519.617249 247.936768 513.757263 234.016357 506.400024 220.880005 C 486.599976 185.589966 457.109985 162.209961 418.650024 150.51001 C 377.835449 137.884766 334.23642 137.360291 293.130005 149 C 237.01001 164.579956 203.230011 203.119995 187.450012 257.679993 C 169.190002 320.829956 169.179993 384.440002 189.299988 447.25 C 210.779999 514.299988 258.390015 549.75 327.609985 556.919983 C 363.530029 560.640015 399.26001 558.919983 432.609985 543.570007 C 466.98999 527.710022 492.76001 503.450012 501.289978 464.690002 C 508.419983 432.330017 495.619995 400.01001 468.650024 380.900024 C 463.119995 376.969971 462.080017 378.820007 461.219971 384.27002 C 458.280029 402.900024 452.75 420.719971 442.450012 436.659973 C 419.059998 472.890015 384.179993 485.109985 343.019989 482.450012 C 313.019989 480.51001 286.910004 469.450012 269.149994 444.119995 C 242.820007 406.590027 253.899994 355.209991 292.850006 330.790039 C 310.480011 319.73999 329.850006 314.079956 350.459991 312.47998 C 370.799988 310.890015 391.150024 310.859985 411.380005 314.02002 C 417.22998 314.929993 419.23999 314.089966 417.5 307.290039 C 411.320007 283.150024 398.280029 265.780029 372.690002 261 C 345.809998 256 320.769989 259.190002 301.619995 281.320007 C 297.910004 285.619995 295.570007 286.320007 290.929993 282.859985 C 282.709991 276.640015 274.079987 270.950012 265.420013 265.349976 C 261.420013 262.76001 261.149994 260.790039 264.130005 256.910034 C 287.829987 226.02002 319.970001 213.459961 357.790009 214.450012 C 399.369995 215.530029 432.219971 232.049988 451.059998 271.01001 C 458.559998 286.5 462.409973 303.01001 463.679993 320.119995 C 464.090027 325.73999 465.799988 328.799988 471.219971 331.339966 C 564.320007 375 565.219971 483.940002 508.419983 543.200012 C 466.070007 587.419983 413.27002 603.190002 371.450012 603 Z"/>
	<path id="path2" fill="#ffffff" stroke="none" d="M 375 356.320007 C 388.150024 355.959991 401.119995 357.730011 414.080017 359.579987 C 417.830017 360.109985 420.320007 361.040009 419.650024 365.799988 C 417.47998 381.309998 414.73999 396.590027 406.75 410.409973 C 399.25 423.409973 388.48999 432.030029 373.909973 435.580017 C 356.109985 439.919983 338.450012 439.679993 321.619995 431.73999 C 308.75 425.679993 299.980011 416.099976 299.209991 401.049988 C 298.429993 385.799988 305.809998 374.969971 318.359985 367.320007 C 332.130005 358.929993 347.640015 357.190002 363.299988 356.320007 C 367.200012 356.149994 371.109985 356.320007 375 356.320007 Z"/>
</svg>
