<svg id="Capa_1" enable-background="new 0 0 512 512" height="512" viewBox="0 0 512 512" width="512" xmlns="http://www.w3.org/2000/svg"><g><g><path d="m375.801 347.485h-86.56v86.56c0 42.984 34.971 77.955 77.955 77.955h86.56v-86.56c0-42.984-34.97-77.955-77.955-77.955z" fill="#0bab60"/><path d="m359.796 342.955-7.796 50.229h58.024c34.769 0 62.955-28.186 62.955-62.955v-50.229h-50.229c-34.768 0-62.954 28.186-62.954 62.955z" fill="#04db7b"/></g><g><path d="m475.921 111.216c-61.324 0-111.215-49.891-111.215-111.216h-88.091v345.556c0 21.134-8.289 40.948-23.34 55.791-14.79 14.586-34.325 22.561-55.064 22.561-.065 0-.131-.001-.196-.001l-10.001 50.472 10.001 37.619c.093 0 .186.002.279.002 44.028-.001 85.439-16.969 116.836-47.932 31.969-31.527 49.576-73.617 49.576-118.512v-180.239c31.787 21.454 70.064 33.989 111.215 33.989l4.26-.014v-88.083z" fill="#ff4340"/><path d="m197.132 423.901c-41.992-.584-76.63-35.222-77.215-77.215-.294-21.158 7.715-41.097 22.553-56.143 14.785-14.992 34.503-23.27 55.545-23.334v-88.094c-44.804.065-86.797 17.662-118.267 49.573-31.523 31.964-48.539 74.305-47.914 119.224.604 43.416 17.949 84.339 48.84 115.231 30.891 30.891 71.815 48.236 115.23 48.84.705.009 1.407.014 2.11.015v-88.091c-.292-.001-.587-.002-.882-.006z" fill="#86ddff"/></g></g></svg>